<?xml version="1.0" encoding="UTF-8"?><svg id="a" xmlns="http://www.w3.org/2000/svg" viewBox="0 0 1920 1080"><defs><style>.b{fill:#f89520;}</style></defs><g><path d="M86.2,259.55v62.79h109.97v44.12H86.2v86.55H31.22V215.43H210.76v44.12H86.2Z"/><path d="M248.1,215.43h54.98v237.58h-54.98V215.43Z"/><path d="M586.48,215.43l-102.84,237.58h-54.3l-102.5-237.58h59.4l72.29,169.7,73.31-169.7h54.64Z"/><path d="M790.12,408.89l43.78,44.12h-227.74V215.43h179.54v44.12h-124.9v51.59h110.31v42.76h-110.31v54.98h129.31Z"/><path class="b" d="M1051.8,215.43v237.58h-45.14l-118.45-144.25v144.25h-54.3l-43.78-44.12s43.78,.31,43.78,.31c0-.57,0-189.79,0-193.77h45.48l118.11,144.25V215.43h54.3Z"/><path class="b" d="M1108.14,215.43h54.98v237.58h-54.98V215.43Z"/><path class="b" d="M1437.36,215.43v237.58h-45.14l-118.45-144.25v144.25h-54.3V215.43h45.48l118.11,144.25V215.43h54.3Z"/><path class="b" d="M1677.66,408.89v44.12h-183.96V215.43h179.54v44.12h-124.9v51.59h110.31v42.76h-110.31v54.98h129.31Z"/><path d="M259.64,622.72l-102.84,237.58h-54.3L0,622.72H59.39l72.29,169.7,73.31-169.7h54.64Z"/><path d="M463.28,816.18v44.12h-183.96v-237.58h179.54v44.12h-124.9v51.59h110.31v42.76h-110.31v54.98h129.31Z"/><path d="M724.96,622.72v237.58h-45.14l-118.45-144.25v144.25h-54.3v-237.58h45.48l118.11,144.25v-144.25h54.3Z"/><path d="M830.52,667.52h-76.03v-44.8h207.04v44.8h-76.03v192.78h-54.98v-192.78Z"/><path d="M984.95,755.76v-133.05h54.98v131.01c0,45.14,19.68,63.81,52.95,63.81s52.95-18.67,52.95-63.81v-131.01h54.3v133.05c0,69.92-40.05,108.61-107.59,108.61s-107.59-38.69-107.59-108.61Z"/><path d="M1405.81,860.3l-45.82-66.18h-50.57v66.18h-54.98v-237.58h102.84c63.47,0,103.18,32.92,103.18,86.21,0,35.64-17.99,61.77-48.87,75.01l53.29,76.37h-59.06Zm-51.59-192.78h-44.8v82.81h44.8c33.6,0,50.57-15.61,50.57-41.41s-16.97-41.41-50.57-41.41Z"/><path d="M1687.85,816.18v44.12h-183.96v-237.58h179.54v44.12h-124.9v51.59h110.31v42.76h-110.31v54.98h129.31Z"/><path d="M1712.97,836.88l18.67-41.41c20.03,14.59,49.89,24.78,78.4,24.78,32.58,0,45.82-10.86,45.82-25.46,0-44.46-138.14-13.92-138.14-102.16,0-40.39,32.58-73.99,100.12-73.99,29.87,0,60.41,7.13,82.47,21.04l-16.97,41.75c-22.06-12.56-44.8-18.67-65.84-18.67-32.58,0-45.14,12.22-45.14,27.15,0,43.78,138.14,13.58,138.14,100.8,0,39.71-32.92,73.65-100.8,73.65-37.67,0-75.69-11.2-96.73-27.49Z"/></g><polygon class="b" points="724.96 408.89 763.8 453.01 795.8 453.01 760.38 408.89 724.96 408.89"/></svg>